# xmcd CD database file
#
# Track frame offsets:
#	150
#	21787
#	46515
#	60526
#	78034
#	99553
#	125642
#	149049
#	173842
#	195533
#	219301
#	240020
#
# Disc length: 3536 seconds
#
# Revision: 0
# Processed by: cddbd v1.5.1PL0 Copyright (c) Steve Scherf et al.
# Submitted via: CDex 1.51
#
DISCID=940dce0c
DTITLE=Sakhile - Togetherness
DYEAR=2004
DGENRE=Jazz
TTITLE0=Goduka
TTITLE1=Pleased to meet you
TTITLE2=Thokgo
TTITLE3=Mangwanani
TTITLE4=Togetherness
TTITLE5=Same Time Next Year
TTITLE6=Shumi Leminyaka
TTITLE7=Ubuhle Bakho
TTITLE8=Mampuru Streeet 
TTITLE9=Mangwane Mpulele
TTITLE10=Marabi
TTITLE11=Barefoot Princess
EXTD=YEAR: 2004
EXTT0=
EXTT1=
EXTT2=
EXTT3=
EXTT4=
EXTT5=
EXTT6=
EXTT7=
EXTT8=
EXTT9=
EXTT10=
EXTT11=
PLAYORDER=
